<svg width="183" height="60" viewBox="0 0 183 60" fill="none" xmlns="http://www.w3.org/2000/svg">
<rect width="183" height="60" rx="30" fill="#504F4F"/>
<path d="M24.2609 23.8611C25.1082 23.8422 25.829 24.1273 26.552 24.4036C26.7863 24.4931 27.0193 24.5863 27.2503 24.685C27.8599 24.9453 28.459 24.9377 29.074 24.6791C29.8183 24.3661 30.5584 24.0155 31.3604 23.889C33.5574 23.5422 35.3991 24.1877 36.8165 25.9548C36.9328 26.0995 36.9517 26.1919 36.7701 26.3201C35.8338 26.9807 35.1083 27.8295 34.7443 28.9297C34.1372 30.766 34.374 32.4893 35.566 34.0379C36.0735 34.6972 36.7207 35.1929 37.4721 35.5426C37.6198 35.6114 37.5533 35.6966 37.5261 35.7818C37.2454 36.669 36.8672 37.514 36.3936 38.3108C35.8421 39.2385 35.2556 40.145 34.4941 40.9179C33.38 42.0489 32.1608 42.2632 30.7182 41.5966C30.2304 41.3714 29.7401 41.1528 29.2033 41.071C28.2473 40.9255 27.3327 41.0638 26.4545 41.4713C25.9989 41.6827 25.5337 41.8654 25.0354 41.9573C24.2107 42.11 23.5137 41.8396 22.8845 41.3288C22.0753 40.6719 21.4921 39.8215 20.9214 38.9647C19.6906 37.1174 18.9379 35.0811 18.5898 32.8879C18.4819 32.2079 18.4216 31.5228 18.4371 30.8348C18.4664 29.5304 18.6839 28.264 19.2964 27.0972C20.1156 25.5376 21.3461 24.4766 23.056 24.021C23.4669 23.9113 23.8869 23.8468 24.2609 23.8611Z" fill="white"/>
<path d="M27.9535 22.8816C27.9828 21.8489 28.4116 20.8491 29.1049 19.9649C29.8735 18.9841 30.8822 18.3648 32.0884 18.075C32.149 18.0603 32.2118 18.0552 32.2729 18.0425C32.785 17.9354 32.7264 18.0206 32.7239 18.4239C32.7159 19.6865 32.2867 20.8019 31.511 21.7797C30.7864 22.693 29.8684 23.3056 28.7074 23.5064C28.6392 23.5182 28.5694 23.5279 28.5003 23.5275C27.8569 23.5249 27.9774 23.6409 27.9535 22.8816Z" fill="white"/>
<path d="M52.018 15.214C53.1007 15.214 54.0293 15.41 54.804 15.802C55.5787 16.194 56.1713 16.7587 56.582 17.496C56.9927 18.2333 57.198 19.1107 57.198 20.128C57.198 21.136 56.9927 22.0087 56.582 22.746C56.1713 23.474 55.5787 24.034 54.804 24.426C54.0293 24.8087 53.1007 25 52.018 25H49.12V15.214H52.018ZM52.018 24.188C53.3807 24.188 54.4167 23.8333 55.126 23.124C55.8447 22.4053 56.204 21.4067 56.204 20.128C56.204 18.84 55.8447 17.8367 55.126 17.118C54.4167 16.39 53.3807 16.026 52.018 16.026H50.1V24.188H52.018ZM62.3508 25.112C61.6321 25.112 60.9834 24.9533 60.4048 24.636C59.8354 24.3093 59.3828 23.852 59.0468 23.264C58.7201 22.6667 58.5568 21.9713 58.5568 21.178C58.5568 20.3847 58.7248 19.694 59.0608 19.106C59.3968 18.5087 59.8541 18.0513 60.4328 17.734C61.0114 17.4073 61.6601 17.244 62.3788 17.244C63.0974 17.244 63.7461 17.4073 64.3248 17.734C64.9128 18.0513 65.3701 18.5087 65.6968 19.106C66.0328 19.694 66.2008 20.3847 66.2008 21.178C66.2008 21.962 66.0328 22.6527 65.6968 23.25C65.3608 23.8473 64.8988 24.3093 64.3108 24.636C63.7228 24.9533 63.0694 25.112 62.3508 25.112ZM62.3508 24.258C62.8548 24.258 63.3214 24.146 63.7508 23.922C64.1801 23.6887 64.5254 23.3433 64.7868 22.886C65.0574 22.4193 65.1928 21.85 65.1928 21.178C65.1928 20.506 65.0621 19.9413 64.8008 19.484C64.5394 19.0173 64.1941 18.672 63.7648 18.448C63.3354 18.2147 62.8688 18.098 62.3648 18.098C61.8608 18.098 61.3941 18.2147 60.9648 18.448C60.5354 18.672 60.1901 19.0173 59.9288 19.484C59.6768 19.9413 59.5508 20.506 59.5508 21.178C59.5508 21.85 59.6768 22.4193 59.9288 22.886C60.1901 23.3433 60.5308 23.6887 60.9508 23.922C61.3801 24.146 61.8468 24.258 62.3508 24.258ZM78.0672 17.356L75.6732 25H74.6932L72.5792 18.588L70.4652 25H69.4712L67.0772 17.356H68.0712L69.9752 24.006L72.1172 17.356H73.0972L75.2112 24.02L77.1012 17.356H78.0672ZM82.9872 17.216C83.9019 17.216 84.6485 17.5007 85.2272 18.07C85.8059 18.63 86.0952 19.4467 86.0952 20.52V25H85.1292V20.632C85.1292 19.8013 84.9192 19.1667 84.4992 18.728C84.0885 18.2893 83.5239 18.07 82.8052 18.07C82.0679 18.07 81.4799 18.3033 81.0412 18.77C80.6025 19.2367 80.3832 19.9227 80.3832 20.828V25H79.4032V17.356H80.3832V18.658C80.6259 18.1913 80.9759 17.8367 81.4332 17.594C81.8905 17.342 82.4085 17.216 82.9872 17.216ZM89.2426 14.64V25H88.2626V14.64H89.2426ZM94.8078 25.112C94.0891 25.112 93.4405 24.9533 92.8618 24.636C92.2925 24.3093 91.8398 23.852 91.5038 23.264C91.1771 22.6667 91.0138 21.9713 91.0138 21.178C91.0138 20.3847 91.1818 19.694 91.5178 19.106C91.8538 18.5087 92.3111 18.0513 92.8898 17.734C93.4685 17.4073 94.1171 17.244 94.8358 17.244C95.5545 17.244 96.2031 17.4073 96.7818 17.734C97.3698 18.0513 97.8271 18.5087 98.1538 19.106C98.4898 19.694 98.6578 20.3847 98.6578 21.178C98.6578 21.962 98.4898 22.6527 98.1538 23.25C97.8178 23.8473 97.3558 24.3093 96.7678 24.636C96.1798 24.9533 95.5265 25.112 94.8078 25.112ZM94.8078 24.258C95.3118 24.258 95.7785 24.146 96.2078 23.922C96.6371 23.6887 96.9825 23.3433 97.2438 22.886C97.5145 22.4193 97.6498 21.85 97.6498 21.178C97.6498 20.506 97.5191 19.9413 97.2578 19.484C96.9965 19.0173 96.6511 18.672 96.2218 18.448C95.7925 18.2147 95.3258 18.098 94.8218 18.098C94.3178 18.098 93.8511 18.2147 93.4218 18.448C92.9925 18.672 92.6471 19.0173 92.3858 19.484C92.1338 19.9413 92.0078 20.506 92.0078 21.178C92.0078 21.85 92.1338 22.4193 92.3858 22.886C92.6471 23.3433 92.9878 23.6887 93.4078 23.922C93.8371 24.146 94.3038 24.258 94.8078 24.258ZM99.9962 21.164C99.9962 20.38 100.15 19.694 100.458 19.106C100.776 18.5087 101.21 18.0513 101.76 17.734C102.32 17.4073 102.95 17.244 103.65 17.244C104.378 17.244 105.004 17.412 105.526 17.748C106.058 18.084 106.441 18.5133 106.674 19.036V17.356H107.654V25H106.674V23.306C106.432 23.8287 106.044 24.2627 105.512 24.608C104.99 24.944 104.364 25.112 103.636 25.112C102.946 25.112 102.32 24.9487 101.76 24.622C101.21 24.2953 100.776 23.8333 100.458 23.236C100.15 22.6387 99.9962 21.948 99.9962 21.164ZM106.674 21.178C106.674 20.562 106.548 20.0207 106.296 19.554C106.044 19.0873 105.699 18.728 105.26 18.476C104.831 18.224 104.355 18.098 103.832 18.098C103.291 18.098 102.806 18.2193 102.376 18.462C101.947 18.7047 101.606 19.0593 101.354 19.526C101.112 19.9833 100.99 20.5293 100.99 21.164C100.99 21.7893 101.112 22.34 101.354 22.816C101.606 23.2827 101.947 23.642 102.376 23.894C102.806 24.1367 103.291 24.258 103.832 24.258C104.355 24.258 104.831 24.132 105.26 23.88C105.699 23.628 106.044 23.2687 106.296 22.802C106.548 22.3353 106.674 21.794 106.674 21.178ZM109.443 21.164C109.443 20.38 109.602 19.694 109.919 19.106C110.237 18.5087 110.671 18.0513 111.221 17.734C111.781 17.4073 112.411 17.244 113.111 17.244C113.783 17.244 114.39 17.4073 114.931 17.734C115.473 18.0607 115.869 18.4853 116.121 19.008V14.64H117.101V25H116.121V23.292C115.888 23.824 115.505 24.2627 114.973 24.608C114.441 24.944 113.816 25.112 113.097 25.112C112.397 25.112 111.767 24.9487 111.207 24.622C110.657 24.2953 110.223 23.8333 109.905 23.236C109.597 22.6387 109.443 21.948 109.443 21.164ZM116.121 21.178C116.121 20.562 115.995 20.0207 115.743 19.554C115.491 19.0873 115.146 18.728 114.707 18.476C114.278 18.224 113.802 18.098 113.279 18.098C112.738 18.098 112.253 18.2193 111.823 18.462C111.394 18.7047 111.053 19.0593 110.801 19.526C110.559 19.9833 110.437 20.5293 110.437 21.164C110.437 21.7893 110.559 22.34 110.801 22.816C111.053 23.2827 111.394 23.642 111.823 23.894C112.253 24.1367 112.738 24.258 113.279 24.258C113.802 24.258 114.278 24.132 114.707 23.88C115.146 23.628 115.491 23.2687 115.743 22.802C115.995 22.3353 116.121 21.794 116.121 21.178ZM126.527 25.112C125.808 25.112 125.159 24.9533 124.581 24.636C124.011 24.3093 123.559 23.852 123.223 23.264C122.896 22.6667 122.733 21.9713 122.733 21.178C122.733 20.3847 122.901 19.694 123.237 19.106C123.573 18.5087 124.03 18.0513 124.609 17.734C125.187 17.4073 125.836 17.244 126.555 17.244C127.273 17.244 127.922 17.4073 128.501 17.734C129.089 18.0513 129.546 18.5087 129.873 19.106C130.209 19.694 130.377 20.3847 130.377 21.178C130.377 21.962 130.209 22.6527 129.873 23.25C129.537 23.8473 129.075 24.3093 128.487 24.636C127.899 24.9533 127.245 25.112 126.527 25.112ZM126.527 24.258C127.031 24.258 127.497 24.146 127.927 23.922C128.356 23.6887 128.701 23.3433 128.963 22.886C129.233 22.4193 129.369 21.85 129.369 21.178C129.369 20.506 129.238 19.9413 128.977 19.484C128.715 19.0173 128.37 18.672 127.941 18.448C127.511 18.2147 127.045 18.098 126.541 18.098C126.037 18.098 125.57 18.2147 125.141 18.448C124.711 18.672 124.366 19.0173 124.105 19.484C123.853 19.9413 123.727 20.506 123.727 21.178C123.727 21.85 123.853 22.4193 124.105 22.886C124.366 23.3433 124.707 23.6887 125.127 23.922C125.556 24.146 126.023 24.258 126.527 24.258ZM135.747 17.216C136.662 17.216 137.408 17.5007 137.987 18.07C138.566 18.63 138.855 19.4467 138.855 20.52V25H137.889V20.632C137.889 19.8013 137.679 19.1667 137.259 18.728C136.848 18.2893 136.284 18.07 135.565 18.07C134.828 18.07 134.24 18.3033 133.801 18.77C133.362 19.2367 133.143 19.9227 133.143 20.828V25H132.163V17.356H133.143V18.658C133.386 18.1913 133.736 17.8367 134.193 17.594C134.65 17.342 135.168 17.216 135.747 17.216ZM146.138 18.182V22.928C146.138 23.3947 146.227 23.7167 146.404 23.894C146.581 24.0713 146.894 24.16 147.342 24.16H148.238V25H147.188C146.497 25 145.984 24.8413 145.648 24.524C145.312 24.1973 145.144 23.6653 145.144 22.928V18.182H144.08V17.356H145.144V15.438H146.138V17.356H148.238V18.182H146.138ZM153.494 17.216C154.073 17.216 154.591 17.3373 155.048 17.58C155.515 17.8227 155.879 18.196 156.14 18.7C156.411 19.1947 156.546 19.8013 156.546 20.52V25H155.58V20.632C155.58 19.8013 155.37 19.1667 154.95 18.728C154.54 18.2893 153.975 18.07 153.256 18.07C152.519 18.07 151.931 18.3033 151.492 18.77C151.054 19.2367 150.834 19.9227 150.834 20.828V25H149.854V14.64H150.834V18.658C151.077 18.2007 151.432 17.846 151.898 17.594C152.374 17.342 152.906 17.216 153.494 17.216ZM165.63 20.786C165.63 21.122 165.62 21.3787 165.602 21.556H159.26C159.288 22.1347 159.428 22.6293 159.68 23.04C159.932 23.4507 160.263 23.7633 160.674 23.978C161.084 24.1833 161.532 24.286 162.018 24.286C162.652 24.286 163.184 24.132 163.614 23.824C164.052 23.516 164.342 23.1007 164.482 22.578H165.518C165.331 23.3247 164.93 23.936 164.314 24.412C163.707 24.8787 162.942 25.112 162.018 25.112C161.299 25.112 160.655 24.9533 160.086 24.636C159.516 24.3093 159.068 23.852 158.742 23.264C158.424 22.6667 158.266 21.9713 158.266 21.178C158.266 20.3847 158.424 19.6893 158.742 19.092C159.059 18.4947 159.502 18.0373 160.072 17.72C160.641 17.4027 161.29 17.244 162.018 17.244C162.746 17.244 163.38 17.4027 163.922 17.72C164.472 18.0373 164.892 18.4667 165.182 19.008C165.48 19.54 165.63 20.1327 165.63 20.786ZM164.636 20.758C164.645 20.1887 164.528 19.7033 164.286 19.302C164.052 18.9007 163.73 18.5973 163.32 18.392C162.909 18.1867 162.461 18.084 161.976 18.084C161.248 18.084 160.627 18.3173 160.114 18.784C159.6 19.2507 159.316 19.9087 159.26 20.758H164.636Z" fill="white"/>
<path d="M55.904 43.728H51.248L50.448 46H48.544L52.528 34.864H54.64L58.624 46H56.704L55.904 43.728ZM55.392 42.24L53.584 37.072L51.76 42.24H55.392ZM62.1803 38.48C62.4896 38.0747 62.9109 37.7333 63.4443 37.456C63.9776 37.1787 64.5803 37.04 65.2523 37.04C66.0203 37.04 66.7189 37.232 67.3483 37.616C67.9883 37.9893 68.4896 38.5173 68.8523 39.2C69.2149 39.8827 69.3963 40.6667 69.3963 41.552C69.3963 42.4373 69.2149 43.232 68.8523 43.936C68.4896 44.6293 67.9883 45.1733 67.3483 45.568C66.7189 45.952 66.0203 46.144 65.2523 46.144C64.5803 46.144 63.9829 46.0107 63.4603 45.744C62.9376 45.4667 62.5109 45.1253 62.1803 44.72V50.192H60.3563V37.184H62.1803V38.48ZM67.5403 41.552C67.5403 40.944 67.4123 40.4213 67.1562 39.984C66.9109 39.536 66.5803 39.2 66.1643 38.976C65.7589 38.7413 65.3216 38.624 64.8523 38.624C64.3936 38.624 63.9563 38.7413 63.5403 38.976C63.1349 39.2107 62.8043 39.552 62.5483 40C62.3029 40.448 62.1803 40.976 62.1803 41.584C62.1803 42.192 62.3029 42.7253 62.5483 43.184C62.8043 43.632 63.1349 43.9733 63.5403 44.208C63.9563 44.4427 64.3936 44.56 64.8523 44.56C65.3216 44.56 65.7589 44.4427 66.1643 44.208C66.5803 43.9627 66.9109 43.6107 67.1562 43.152C67.4123 42.6933 67.5403 42.16 67.5403 41.552ZM73.024 38.48C73.3333 38.0747 73.7547 37.7333 74.288 37.456C74.8213 37.1787 75.424 37.04 76.096 37.04C76.864 37.04 77.5627 37.232 78.192 37.616C78.832 37.9893 79.3333 38.5173 79.696 39.2C80.0587 39.8827 80.24 40.6667 80.24 41.552C80.24 42.4373 80.0587 43.232 79.696 43.936C79.3333 44.6293 78.832 45.1733 78.192 45.568C77.5627 45.952 76.864 46.144 76.096 46.144C75.424 46.144 74.8267 46.0107 74.304 45.744C73.7813 45.4667 73.3547 45.1253 73.024 44.72V50.192H71.2V37.184H73.024V38.48ZM78.384 41.552C78.384 40.944 78.256 40.4213 78 39.984C77.7547 39.536 77.424 39.2 77.008 38.976C76.6027 38.7413 76.1653 38.624 75.696 38.624C75.2373 38.624 74.8 38.7413 74.384 38.976C73.9787 39.2107 73.648 39.552 73.392 40C73.1467 40.448 73.024 40.976 73.024 41.584C73.024 42.192 73.1467 42.7253 73.392 43.184C73.648 43.632 73.9787 43.9733 74.384 44.208C74.8 44.4427 75.2373 44.56 75.696 44.56C76.1653 44.56 76.6027 44.4427 77.008 44.208C77.424 43.9627 77.7547 43.6107 78 43.152C78.256 42.6933 78.384 42.16 78.384 41.552ZM89.864 46.112C89.1173 46.112 88.4453 45.984 87.848 45.728C87.2507 45.4613 86.7813 45.088 86.44 44.608C86.0987 44.128 85.928 43.568 85.928 42.928H87.88C87.9227 43.408 88.1093 43.8027 88.44 44.112C88.7813 44.4213 89.256 44.576 89.864 44.576C90.4933 44.576 90.984 44.4267 91.336 44.128C91.688 43.8187 91.864 43.424 91.864 42.944C91.864 42.5707 91.752 42.2667 91.528 42.032C91.3147 41.7973 91.0427 41.616 90.712 41.488C90.392 41.36 89.944 41.2213 89.368 41.072C88.6427 40.88 88.0507 40.688 87.592 40.496C87.144 40.2933 86.76 39.984 86.44 39.568C86.12 39.152 85.96 38.5973 85.96 37.904C85.96 37.264 86.12 36.704 86.44 36.224C86.76 35.744 87.208 35.376 87.784 35.12C88.36 34.864 89.0267 34.736 89.784 34.736C90.8613 34.736 91.7413 35.008 92.424 35.552C93.1173 36.0853 93.5013 36.8213 93.576 37.76H91.56C91.528 37.3547 91.336 37.008 90.984 36.72C90.632 36.432 90.168 36.288 89.592 36.288C89.0693 36.288 88.6427 36.4213 88.312 36.688C87.9813 36.9547 87.816 37.3387 87.816 37.84C87.816 38.1813 87.9173 38.464 88.12 38.688C88.3333 38.9013 88.6 39.072 88.92 39.2C89.24 39.328 89.6773 39.4667 90.232 39.616C90.968 39.8187 91.5653 40.0213 92.024 40.224C92.4933 40.4267 92.888 40.7413 93.208 41.168C93.5387 41.584 93.704 42.144 93.704 42.848C93.704 43.4133 93.5493 43.9467 93.24 44.448C92.9413 44.9493 92.4987 45.3547 91.912 45.664C91.336 45.9627 90.6533 46.112 89.864 46.112ZM97.9843 38.672V43.552C97.9843 43.8827 98.0589 44.1227 98.2083 44.272C98.3683 44.4107 98.6349 44.48 99.0083 44.48H100.128V46H98.6883C97.8669 46 97.2376 45.808 96.8003 45.424C96.3629 45.04 96.1443 44.416 96.1443 43.552V38.672H95.1043V37.184H96.1443V34.992H97.9843V37.184H100.128V38.672H97.9843ZM105.633 46.144C104.801 46.144 104.049 45.9573 103.377 45.584C102.705 45.2 102.177 44.6667 101.793 43.984C101.409 43.2907 101.217 42.4907 101.217 41.584C101.217 40.688 101.415 39.8933 101.809 39.2C102.204 38.5067 102.743 37.9733 103.425 37.6C104.108 37.2267 104.871 37.04 105.713 37.04C106.556 37.04 107.319 37.2267 108.001 37.6C108.684 37.9733 109.223 38.5067 109.617 39.2C110.012 39.8933 110.209 40.688 110.209 41.584C110.209 42.48 110.007 43.2747 109.601 43.968C109.196 44.6613 108.641 45.2 107.937 45.584C107.244 45.9573 106.476 46.144 105.633 46.144ZM105.633 44.56C106.103 44.56 106.54 44.448 106.945 44.224C107.361 44 107.697 43.664 107.953 43.216C108.209 42.768 108.337 42.224 108.337 41.584C108.337 40.944 108.215 40.4053 107.969 39.968C107.724 39.52 107.399 39.184 106.993 38.96C106.588 38.736 106.151 38.624 105.681 38.624C105.212 38.624 104.775 38.736 104.369 38.96C103.975 39.184 103.66 39.52 103.425 39.968C103.191 40.4053 103.073 40.944 103.073 41.584C103.073 42.5333 103.313 43.2693 103.793 43.792C104.284 44.304 104.897 44.56 105.633 44.56ZM113.837 38.464C114.103 38.016 114.455 37.6693 114.893 37.424C115.341 37.168 115.869 37.04 116.477 37.04V38.928H116.013C115.298 38.928 114.754 39.1093 114.381 39.472C114.018 39.8347 113.837 40.464 113.837 41.36V46H112.013V37.184H113.837V38.464ZM126.233 41.376C126.233 41.7067 126.212 42.0053 126.169 42.272H119.433C119.486 42.976 119.748 43.5413 120.217 43.968C120.686 44.3947 121.262 44.608 121.945 44.608C122.926 44.608 123.62 44.1973 124.025 43.376H125.993C125.726 44.1867 125.241 44.8533 124.537 45.376C123.844 45.888 122.98 46.144 121.945 46.144C121.102 46.144 120.345 45.9573 119.673 45.584C119.012 45.2 118.489 44.6667 118.105 43.984C117.732 43.2907 117.545 42.4907 117.545 41.584C117.545 40.6773 117.726 39.8827 118.089 39.2C118.462 38.5067 118.98 37.9733 119.641 37.6C120.313 37.2267 121.081 37.04 121.945 37.04C122.777 37.04 123.518 37.2213 124.169 37.584C124.82 37.9467 125.326 38.4587 125.689 39.12C126.052 39.7707 126.233 40.5227 126.233 41.376ZM124.329 40.8C124.318 40.128 124.078 39.5893 123.609 39.184C123.14 38.7787 122.558 38.576 121.865 38.576C121.236 38.576 120.697 38.7787 120.249 39.184C119.801 39.5787 119.534 40.1173 119.449 40.8H124.329Z" fill="white"/>
</svg>
