<svg width="183" height="60" viewBox="0 0 183 60" fill="none" xmlns="http://www.w3.org/2000/svg">
<rect width="183" height="60" rx="30" fill="#504F4F"/>
<path d="M20.2757 18.248C20.604 18.4581 20.9326 18.6683 21.2609 18.8784C21.2868 18.9062 21.3155 18.9294 21.3552 18.9338C21.4703 19.0302 21.6014 19.1026 21.7315 19.1761C22.0077 19.3678 22.292 19.5466 22.5819 19.7163C22.6553 19.777 22.733 19.8309 22.8216 19.8678C22.8978 19.9392 22.9877 19.9884 23.0813 20.0316C23.4062 20.2571 23.741 20.4672 24.0793 20.6713C24.1133 20.7023 24.147 20.734 24.1948 20.7424C24.2856 20.8229 24.392 20.8783 24.4972 20.9365C24.652 21.0458 24.8074 21.1535 24.9762 21.2406C24.9859 21.2694 25.0106 21.2728 25.0355 21.2754C25.1407 21.3696 25.2655 21.4335 25.3879 21.5011C25.7209 21.7291 26.0607 21.9464 26.4084 22.1515C26.5644 22.2526 26.7201 22.3538 26.8762 22.4552C27.1624 22.6362 27.4489 22.8175 27.735 22.9985C27.8118 23.0639 27.8964 23.1165 27.9884 23.1572C28.0615 23.2249 28.1435 23.2778 28.2365 23.3132C28.5533 23.5361 28.8797 23.7444 29.2159 23.9369C29.2702 23.9892 29.3301 24.0331 29.4019 24.0584C29.4849 24.1355 29.5854 24.1846 29.6821 24.2397C29.8207 24.328 29.9592 24.4163 30.0975 24.5046C30.1346 24.5269 30.1721 24.5488 30.2092 24.571C30.3113 24.6552 30.4196 24.7295 30.5413 24.7821C30.8696 25.0132 31.2113 25.2233 31.5533 25.4327C31.5733 25.4443 31.5936 25.4559 31.6136 25.4672C31.7484 25.5545 31.8832 25.6416 32.018 25.729C32.3073 25.9244 32.6004 26.1135 32.9028 26.2876C32.9549 26.3264 33.0073 26.3649 33.0594 26.4037C33.0139 26.4557 32.9683 26.508 32.9228 26.56C32.8294 26.6527 32.7358 26.7457 32.6425 26.8384C32.582 26.8775 32.5339 26.9295 32.4918 26.9874C32.3635 27.0967 32.2405 27.2113 32.131 27.3397C32.0842 27.3685 32.0464 27.4064 32.0177 27.4534C31.8994 27.5717 31.7815 27.6904 31.6632 27.8088C31.6164 27.8376 31.5786 27.8754 31.5499 27.9224C31.4113 28.0257 31.2978 28.1551 31.1823 28.2819C31.1405 28.3041 31.1086 28.3361 31.0865 28.378C30.9457 28.487 30.8278 28.6185 30.7085 28.7494C30.667 28.791 30.6255 28.8327 30.584 28.8743C30.5425 28.9122 30.4998 28.9485 30.4595 28.9877C30.3094 29.1345 30.3097 29.1348 30.1518 28.9955C30.08 28.9031 29.9979 28.8211 29.9059 28.7488C29.8319 28.6745 29.7579 28.6003 29.684 28.5261C29.6122 28.4338 29.5301 28.3514 29.4381 28.2794C29.3641 28.2052 29.2901 28.131 29.2162 28.0567C29.1444 27.9644 29.0623 27.882 28.9702 27.81C28.8963 27.7358 28.8223 27.6616 28.7484 27.5874C28.6766 27.495 28.5945 27.4126 28.5024 27.3406C28.4285 27.2664 28.3545 27.1922 28.2805 27.118C28.2088 27.0256 28.1267 26.9433 28.0346 26.8712C27.9607 26.797 27.8867 26.7228 27.8127 26.6486C27.741 26.5562 27.6589 26.4739 27.5668 26.4019C27.4929 26.3277 27.4189 26.2534 27.3449 26.1792C27.2732 26.0869 27.1911 26.0045 27.099 25.9325C27.025 25.8583 26.9511 25.7841 26.8771 25.7099C26.8053 25.6175 26.7233 25.5351 26.6312 25.4631C26.5572 25.3889 26.4833 25.3147 26.4093 25.2405C26.3375 25.1481 26.2555 25.0658 26.1634 24.9937C26.1007 24.9308 26.0382 24.8682 25.9755 24.8052C25.8922 24.7016 25.7989 24.6083 25.6956 24.5244C25.6216 24.4501 25.5477 24.3759 25.4737 24.3017C25.4019 24.2094 25.3198 24.127 25.2278 24.055C25.1538 23.9808 25.0798 23.9066 25.0059 23.8323C24.9341 23.74 24.852 23.6579 24.76 23.5856C24.686 23.5114 24.612 23.4372 24.5381 23.363C24.4663 23.2706 24.3842 23.1882 24.2922 23.1162C24.2182 23.042 24.1442 22.9678 24.0703 22.8936C23.9985 22.8012 23.9164 22.7189 23.8243 22.6468C23.7504 22.5726 23.6764 22.4984 23.6025 22.4242C23.5307 22.3318 23.4486 22.2495 23.3565 22.1775C23.2826 22.1033 23.2086 22.029 23.1346 21.9548C23.0629 21.8625 22.9808 21.7801 22.8887 21.7081C22.8148 21.6339 22.7408 21.5597 22.6668 21.4855C22.5951 21.3931 22.513 21.3107 22.4209 21.2387C22.3469 21.1645 22.273 21.0903 22.199 21.0161C22.1272 20.9237 22.0452 20.8414 21.9531 20.7693C21.8791 20.6951 21.8052 20.6209 21.7312 20.5467C21.6594 20.4543 21.5774 20.372 21.4853 20.3C21.4113 20.2257 21.3374 20.1515 21.2634 20.0773C21.1916 19.985 21.1095 19.9026 21.0175 19.8306C20.9435 19.7564 20.8696 19.6822 20.7956 19.6079C20.7238 19.5156 20.6417 19.4332 20.5497 19.3612C20.4757 19.287 20.4017 19.2128 20.3278 19.1386C20.256 19.0462 20.1739 18.9638 20.0819 18.8918C20.0079 18.8176 19.9339 18.7434 19.86 18.6692C19.7882 18.5768 19.7061 18.4948 19.6144 18.4228C19.5404 18.3486 19.4664 18.2743 19.3925 18.2001C19.3569 18.1381 19.3013 18.0965 19.233 18.052C19.5426 17.9647 19.8288 17.9816 20.0993 18.1469C20.1583 18.1854 20.2176 18.2158 20.2757 18.248Z" fill="white"/>
<path d="M20.7962 41.4214C20.6227 41.5325 20.4495 41.6437 20.276 41.7545C20.2226 41.7733 20.1761 41.8024 20.138 41.845C20.0344 41.8882 19.9305 41.9314 19.8269 41.9747C19.786 41.9803 19.7451 41.9862 19.7042 41.9919C19.5856 42.0072 19.4677 41.9997 19.3503 41.9794C19.2901 41.969 19.247 41.9512 19.3088 41.8864C19.3578 41.8547 19.3987 41.8153 19.4287 41.7649C19.532 41.6612 19.635 41.5579 19.7383 41.4542C19.801 41.4113 19.8537 41.3587 19.8965 41.2958C19.9998 41.1922 20.1028 41.0888 20.2061 40.9852C20.2688 40.9423 20.3215 40.8897 20.3643 40.8267C20.4676 40.7231 20.5706 40.6198 20.6739 40.5161C20.7366 40.4732 20.7893 40.4206 20.8321 40.3577C20.9485 40.2412 21.0652 40.1247 21.1816 40.0082C21.23 39.9772 21.2706 39.9384 21.2999 39.8886C21.4032 39.785 21.5065 39.6816 21.6095 39.578C21.6722 39.5351 21.725 39.4825 21.7677 39.4195C21.871 39.3159 21.974 39.2126 22.0773 39.1089C22.14 39.0663 22.1928 39.0134 22.2352 38.9505C22.3385 38.8468 22.4418 38.7435 22.5448 38.6399C22.6075 38.597 22.6603 38.5443 22.703 38.4814C22.8194 38.3649 22.9362 38.2484 23.0526 38.132C23.1009 38.101 23.1415 38.0621 23.1708 38.0123C23.2741 37.9087 23.3774 37.8054 23.4804 37.7017C23.5431 37.6591 23.5959 37.6062 23.6383 37.5433C23.7416 37.4396 23.8449 37.3363 23.9479 37.2327C24.0106 37.1901 24.0634 37.1372 24.1058 37.0742C24.2091 36.9706 24.3124 36.8672 24.4154 36.7636C24.4781 36.7207 24.5309 36.6681 24.5736 36.6052C24.69 36.4887 24.8068 36.3722 24.9232 36.2557C24.9715 36.2247 25.0121 36.1859 25.0415 36.1361C25.1447 36.0324 25.248 35.9291 25.351 35.8255C25.4138 35.7826 25.4665 35.73 25.5093 35.667C25.6126 35.5634 25.7155 35.46 25.8188 35.3564C25.8816 35.3135 25.9343 35.2609 25.9771 35.198C26.0804 35.0943 26.1834 34.991 26.2867 34.8873C26.3494 34.8444 26.4021 34.7918 26.4449 34.7289C26.5613 34.6124 26.678 34.4959 26.7944 34.3794C26.8428 34.3484 26.8834 34.3096 26.9127 34.2598C27.016 34.1562 27.1193 34.0529 27.2223 33.9492C27.285 33.9063 27.3377 33.8537 27.3805 33.7908C27.4838 33.6871 27.5868 33.5838 27.6901 33.4801C27.7528 33.4372 27.8056 33.3846 27.8483 33.3217C27.9516 33.2181 28.0546 33.1147 28.1579 33.0111C28.2206 32.9682 28.2734 32.9156 28.3161 32.8526C28.4325 32.7362 28.5492 32.6197 28.6656 32.5032C28.714 32.4722 28.7546 32.4334 28.7839 32.3836C28.8872 32.2799 28.9905 32.1766 29.0935 32.0729C29.1562 32.03 29.209 31.9774 29.2517 31.9145C29.355 31.8109 29.458 31.7075 29.5613 31.6039C29.6241 31.5613 29.6768 31.5084 29.7192 31.4454C29.8225 31.3418 29.9258 31.2385 30.0288 31.1348C30.0915 31.0922 30.144 31.0393 30.1867 30.9764C30.2729 30.8624 30.3387 30.8918 30.4317 30.9848C30.7969 31.3499 31.1523 31.7254 31.538 32.0695C31.6885 32.2201 31.8389 32.3707 31.989 32.5217C32.1363 32.6911 32.3005 32.8432 32.4665 32.9939C32.6188 33.1564 32.7723 33.3176 32.9433 33.4607C33.0582 33.5584 33.0654 33.6423 32.9131 33.7072C32.909 33.709 32.9065 33.7147 32.9034 33.7187C32.8138 33.7676 32.7205 33.8105 32.6456 33.8831C32.5651 33.9335 32.4849 33.9836 32.4044 34.0341C32.1354 34.1922 31.8701 34.3563 31.6164 34.5385C31.5917 34.5513 31.5668 34.5645 31.5421 34.5773C31.5368 34.5786 31.5324 34.5817 31.5293 34.5858C31.4123 34.6628 31.2949 34.7395 31.1779 34.8166C31.1376 34.8228 31.1058 34.8419 31.0855 34.8783C30.7566 35.0862 30.428 35.2938 30.099 35.5017C29.9677 35.5859 29.836 35.6702 29.7046 35.7541C29.6721 35.7757 29.6397 35.7973 29.6072 35.8189C29.4668 35.8872 29.3366 35.9714 29.2155 36.07C29.1054 36.1139 29.0114 36.1831 28.9206 36.2573C28.8451 36.2883 28.773 36.3252 28.7146 36.3841C28.3885 36.592 28.0627 36.7999 27.7366 37.0075C27.6495 37.0492 27.5687 37.1005 27.496 37.1647C27.4236 37.1882 27.3649 37.2336 27.3087 37.2828C27.0007 37.4597 26.7008 37.6501 26.409 37.8533C26.2536 37.935 26.1081 38.0321 25.9668 38.1354C25.9558 38.1326 25.9474 38.136 25.9415 38.1454C25.6107 38.3568 25.2711 38.5547 24.9528 38.7855C24.8021 38.8515 24.6701 38.947 24.539 39.0444C24.5103 39.0629 24.4816 39.081 24.4532 39.0995C24.3196 39.1734 24.1854 39.2458 24.0681 39.345C23.9532 39.3982 23.849 39.4684 23.7516 39.5485C23.6886 39.5871 23.6252 39.6253 23.5622 39.6638C23.2361 39.8717 22.9102 40.0796 22.5841 40.2875C22.4986 40.3251 22.4231 40.3783 22.3522 40.4385C22.2786 40.4738 22.2065 40.5114 22.1466 40.569C21.8439 40.7375 21.5586 40.9338 21.2681 41.122C21.1164 41.2206 20.965 41.3196 20.8134 41.4182L20.8031 41.4157L20.7962 41.4214Z" fill="white"/>
<path d="M18.3641 18.9907C18.3881 18.9788 18.3731 18.8999 18.4318 18.9494C18.4633 18.976 18.4902 19.0086 18.5195 19.038C22.1212 22.6508 25.7223 26.264 29.3263 29.8744C29.4189 29.9674 29.4542 30.0334 29.3381 30.1224C29.2754 30.1653 29.2226 30.2182 29.1799 30.2811C29.0635 30.3976 28.9468 30.5141 28.8304 30.6306C28.782 30.6616 28.7414 30.7004 28.7121 30.7502C28.6088 30.8538 28.5055 30.9572 28.4025 31.0608C28.3398 31.1037 28.287 31.1563 28.2443 31.2193C28.1279 31.3357 28.0111 31.4522 27.8947 31.5687C27.8464 31.5997 27.8058 31.6385 27.7765 31.6883C27.6732 31.792 27.5699 31.8953 27.4669 31.9989C27.4041 32.0418 27.3514 32.0945 27.3086 32.1574C27.1922 32.2739 27.0755 32.3904 26.9591 32.5068C26.9107 32.5378 26.8702 32.5767 26.8408 32.6265C26.7375 32.7301 26.6342 32.8334 26.5313 32.9371C26.4685 32.98 26.4158 33.0326 26.373 33.0955C26.2566 33.212 26.1399 33.3285 26.0235 33.445C25.9751 33.476 25.9346 33.5148 25.9052 33.5646C25.8019 33.6682 25.6986 33.7716 25.5956 33.8752C25.5329 33.9181 25.4802 33.9707 25.4374 34.0336C25.321 34.1501 25.2043 34.2666 25.0879 34.3831C25.0395 34.4141 24.9989 34.4529 24.9696 34.5027C24.8663 34.6064 24.763 34.7097 24.66 34.8133C24.5973 34.8562 24.5445 34.9088 24.5018 34.9718C24.3854 35.0883 24.2687 35.2047 24.1523 35.3212C24.1039 35.3522 24.0633 35.3911 24.034 35.4408C23.9307 35.5445 23.8274 35.6478 23.7244 35.7515C23.6617 35.7944 23.6089 35.847 23.5662 35.9099C23.4498 36.0264 23.333 36.1429 23.2166 36.2594C23.1683 36.2904 23.1277 36.3292 23.0984 36.379C22.9951 36.4826 22.8918 36.5859 22.7888 36.6896C22.726 36.7325 22.6733 36.7851 22.6305 36.848C22.5141 36.9645 22.3974 37.081 22.281 37.1975C22.2326 37.2285 22.1921 37.2673 22.1627 37.3171C22.0594 37.4207 21.9561 37.5241 21.8532 37.6277C21.7904 37.6706 21.7377 37.7232 21.6949 37.7862C21.5785 37.9026 21.4618 38.0191 21.3454 38.1356C21.297 38.1666 21.2565 38.2054 21.2271 38.2552C21.1238 38.3589 21.0205 38.4622 20.9175 38.5659C20.8548 38.6087 20.8021 38.6614 20.7593 38.7243C20.6429 38.8408 20.5262 38.9573 20.4098 39.0737C20.3614 39.1047 20.3208 39.1436 20.2915 39.1934C20.1882 39.297 20.0849 39.4003 19.9819 39.504C19.9192 39.5469 19.8664 39.5995 19.8237 39.6624C19.7073 39.7789 19.5906 39.8954 19.4742 40.0119C19.4258 40.0429 19.3852 40.0817 19.3559 40.1315C19.2526 40.2351 19.1493 40.3385 19.0463 40.4421C18.9836 40.4847 18.9308 40.5376 18.8884 40.6006C18.772 40.717 18.6553 40.8335 18.5389 40.95C18.4908 40.9813 18.4493 41.0189 18.4224 41.0706C18.316 40.9838 18.3563 40.8623 18.3563 40.7559C18.3557 33.5862 18.356 26.414 18.356 19.2415C18.356 19.1789 18.3578 19.1166 18.3591 19.054C18.3607 19.033 18.3622 19.012 18.3641 18.9907Z" fill="white"/>
<path d="M37.1342 29.0012C37.214 29.0732 37.2943 29.1452 37.3741 29.2175C37.5923 29.5056 37.6847 29.8281 37.6407 30.1885C37.6366 30.2227 37.6325 30.2571 37.6285 30.2916C37.5882 30.3921 37.548 30.4926 37.508 30.5928C37.3951 30.7453 37.2836 30.8981 37.1189 31.002C36.9766 31.0919 36.8386 31.189 36.6988 31.2829C36.5683 31.3578 36.437 31.4304 36.3221 31.5294C36.2825 31.5334 36.2541 31.5569 36.2282 31.5845C35.8889 31.8049 35.5497 32.025 35.2105 32.2455C35.0832 32.3056 34.9658 32.3817 34.8578 32.4719C34.8297 32.4903 34.8017 32.5088 34.7736 32.5273C34.6466 32.5868 34.5301 32.6626 34.4225 32.7524C34.3978 32.7653 34.3729 32.7784 34.3482 32.7913C34.3426 32.7925 34.3382 32.7956 34.3351 32.8003C34.2015 32.8774 34.0711 33.0333 33.9269 32.8154C33.8298 32.7048 33.7337 32.594 33.6176 32.5022C33.5527 32.4365 33.4875 32.3704 33.4226 32.3047C33.3349 32.2135 33.2475 32.1224 33.1598 32.0313C33.0936 31.9649 33.0272 31.8982 32.961 31.8318C32.8805 31.7326 32.7909 31.6424 32.692 31.5619C32.6258 31.4955 32.5597 31.4292 32.4935 31.3625C32.3028 31.1505 32.1093 30.941 31.8949 30.7528C31.8643 30.7224 31.8341 30.6917 31.8035 30.6614C31.7935 30.6498 31.7832 30.6385 31.7732 30.6269C31.723 30.5527 31.6578 30.4935 31.5885 30.4378C31.4845 30.3326 31.3803 30.2274 31.2764 30.1222C31.1656 30.037 31.1778 29.9606 31.2848 29.8785C31.3407 29.8356 31.3828 29.7752 31.4312 29.7226C31.4933 29.6797 31.5457 29.6268 31.5885 29.5648C31.7092 29.4568 31.8269 29.3459 31.9289 29.2194C31.9598 29.1872 31.9907 29.1549 32.0216 29.1227C32.1565 28.9968 32.296 28.8756 32.4064 28.7259L32.4036 28.7287C32.427 28.7059 32.4504 28.6827 32.4738 28.6599C32.4804 28.6533 32.4873 28.6464 32.4938 28.6398C32.6118 28.5215 32.7301 28.4031 32.848 28.2844C32.8948 28.2556 32.9326 28.2177 32.9616 28.1704C33.0796 28.0521 33.1979 27.9337 33.3158 27.815C33.3514 27.7759 33.387 27.7371 33.4229 27.6979C33.5399 27.5799 33.6569 27.4618 33.774 27.3438C33.8161 27.2999 33.8579 27.2564 33.9001 27.2126C34.0892 27.0501 34.0889 27.0501 34.3079 27.1869C34.3248 27.1976 34.3432 27.2054 34.361 27.2145C34.4094 27.252 34.4549 27.2946 34.5167 27.3109C34.6116 27.3901 34.7146 27.4568 34.8257 27.511C34.9449 27.6071 35.0725 27.6901 35.2105 27.7568C35.2564 27.7875 35.3022 27.8179 35.3481 27.8485C35.4539 27.9328 35.5666 28.0057 35.6877 28.0655C36.025 28.2838 36.3624 28.5017 36.6997 28.72C36.7103 28.7447 36.7309 28.7522 36.7559 28.7522C36.8711 28.8512 37.0028 28.926 37.1342 29.0012Z" fill="white"/>
<path d="M52.018 15.214C53.1007 15.214 54.0293 15.41 54.804 15.802C55.5787 16.194 56.1713 16.7587 56.582 17.496C56.9927 18.2333 57.198 19.1107 57.198 20.128C57.198 21.136 56.9927 22.0087 56.582 22.746C56.1713 23.474 55.5787 24.034 54.804 24.426C54.0293 24.8087 53.1007 25 52.018 25H49.12V15.214H52.018ZM52.018 24.188C53.3807 24.188 54.4167 23.8333 55.126 23.124C55.8447 22.4053 56.204 21.4067 56.204 20.128C56.204 18.84 55.8447 17.8367 55.126 17.118C54.4167 16.39 53.3807 16.026 52.018 16.026H50.1V24.188H52.018ZM62.3508 25.112C61.6321 25.112 60.9834 24.9533 60.4048 24.636C59.8354 24.3093 59.3828 23.852 59.0468 23.264C58.7201 22.6667 58.5568 21.9713 58.5568 21.178C58.5568 20.3847 58.7248 19.694 59.0608 19.106C59.3968 18.5087 59.8541 18.0513 60.4328 17.734C61.0114 17.4073 61.6601 17.244 62.3788 17.244C63.0974 17.244 63.7461 17.4073 64.3248 17.734C64.9128 18.0513 65.3701 18.5087 65.6968 19.106C66.0328 19.694 66.2008 20.3847 66.2008 21.178C66.2008 21.962 66.0328 22.6527 65.6968 23.25C65.3608 23.8473 64.8988 24.3093 64.3108 24.636C63.7228 24.9533 63.0694 25.112 62.3508 25.112ZM62.3508 24.258C62.8548 24.258 63.3214 24.146 63.7508 23.922C64.1801 23.6887 64.5254 23.3433 64.7868 22.886C65.0574 22.4193 65.1928 21.85 65.1928 21.178C65.1928 20.506 65.0621 19.9413 64.8008 19.484C64.5394 19.0173 64.1941 18.672 63.7648 18.448C63.3354 18.2147 62.8688 18.098 62.3648 18.098C61.8608 18.098 61.3941 18.2147 60.9648 18.448C60.5354 18.672 60.1901 19.0173 59.9288 19.484C59.6768 19.9413 59.5508 20.506 59.5508 21.178C59.5508 21.85 59.6768 22.4193 59.9288 22.886C60.1901 23.3433 60.5308 23.6887 60.9508 23.922C61.3801 24.146 61.8468 24.258 62.3508 24.258ZM78.0672 17.356L75.6732 25H74.6932L72.5792 18.588L70.4652 25H69.4712L67.0772 17.356H68.0712L69.9752 24.006L72.1172 17.356H73.0972L75.2112 24.02L77.1012 17.356H78.0672ZM82.9872 17.216C83.9019 17.216 84.6485 17.5007 85.2272 18.07C85.8059 18.63 86.0952 19.4467 86.0952 20.52V25H85.1292V20.632C85.1292 19.8013 84.9192 19.1667 84.4992 18.728C84.0885 18.2893 83.5239 18.07 82.8052 18.07C82.0679 18.07 81.4799 18.3033 81.0412 18.77C80.6025 19.2367 80.3832 19.9227 80.3832 20.828V25H79.4032V17.356H80.3832V18.658C80.6259 18.1913 80.9759 17.8367 81.4332 17.594C81.8905 17.342 82.4085 17.216 82.9872 17.216ZM89.2426 14.64V25H88.2626V14.64H89.2426ZM94.8078 25.112C94.0891 25.112 93.4405 24.9533 92.8618 24.636C92.2925 24.3093 91.8398 23.852 91.5038 23.264C91.1771 22.6667 91.0138 21.9713 91.0138 21.178C91.0138 20.3847 91.1818 19.694 91.5178 19.106C91.8538 18.5087 92.3111 18.0513 92.8898 17.734C93.4685 17.4073 94.1171 17.244 94.8358 17.244C95.5545 17.244 96.2031 17.4073 96.7818 17.734C97.3698 18.0513 97.8271 18.5087 98.1538 19.106C98.4898 19.694 98.6578 20.3847 98.6578 21.178C98.6578 21.962 98.4898 22.6527 98.1538 23.25C97.8178 23.8473 97.3558 24.3093 96.7678 24.636C96.1798 24.9533 95.5265 25.112 94.8078 25.112ZM94.8078 24.258C95.3118 24.258 95.7785 24.146 96.2078 23.922C96.6371 23.6887 96.9825 23.3433 97.2438 22.886C97.5145 22.4193 97.6498 21.85 97.6498 21.178C97.6498 20.506 97.5191 19.9413 97.2578 19.484C96.9965 19.0173 96.6511 18.672 96.2218 18.448C95.7925 18.2147 95.3258 18.098 94.8218 18.098C94.3178 18.098 93.8511 18.2147 93.4218 18.448C92.9925 18.672 92.6471 19.0173 92.3858 19.484C92.1338 19.9413 92.0078 20.506 92.0078 21.178C92.0078 21.85 92.1338 22.4193 92.3858 22.886C92.6471 23.3433 92.9878 23.6887 93.4078 23.922C93.8371 24.146 94.3038 24.258 94.8078 24.258ZM99.9962 21.164C99.9962 20.38 100.15 19.694 100.458 19.106C100.776 18.5087 101.21 18.0513 101.76 17.734C102.32 17.4073 102.95 17.244 103.65 17.244C104.378 17.244 105.004 17.412 105.526 17.748C106.058 18.084 106.441 18.5133 106.674 19.036V17.356H107.654V25H106.674V23.306C106.432 23.8287 106.044 24.2627 105.512 24.608C104.99 24.944 104.364 25.112 103.636 25.112C102.946 25.112 102.32 24.9487 101.76 24.622C101.21 24.2953 100.776 23.8333 100.458 23.236C100.15 22.6387 99.9962 21.948 99.9962 21.164ZM106.674 21.178C106.674 20.562 106.548 20.0207 106.296 19.554C106.044 19.0873 105.699 18.728 105.26 18.476C104.831 18.224 104.355 18.098 103.832 18.098C103.291 18.098 102.806 18.2193 102.376 18.462C101.947 18.7047 101.606 19.0593 101.354 19.526C101.112 19.9833 100.99 20.5293 100.99 21.164C100.99 21.7893 101.112 22.34 101.354 22.816C101.606 23.2827 101.947 23.642 102.376 23.894C102.806 24.1367 103.291 24.258 103.832 24.258C104.355 24.258 104.831 24.132 105.26 23.88C105.699 23.628 106.044 23.2687 106.296 22.802C106.548 22.3353 106.674 21.794 106.674 21.178ZM109.443 21.164C109.443 20.38 109.602 19.694 109.919 19.106C110.237 18.5087 110.671 18.0513 111.221 17.734C111.781 17.4073 112.411 17.244 113.111 17.244C113.783 17.244 114.39 17.4073 114.931 17.734C115.473 18.0607 115.869 18.4853 116.121 19.008V14.64H117.101V25H116.121V23.292C115.888 23.824 115.505 24.2627 114.973 24.608C114.441 24.944 113.816 25.112 113.097 25.112C112.397 25.112 111.767 24.9487 111.207 24.622C110.657 24.2953 110.223 23.8333 109.905 23.236C109.597 22.6387 109.443 21.948 109.443 21.164ZM116.121 21.178C116.121 20.562 115.995 20.0207 115.743 19.554C115.491 19.0873 115.146 18.728 114.707 18.476C114.278 18.224 113.802 18.098 113.279 18.098C112.738 18.098 112.253 18.2193 111.823 18.462C111.394 18.7047 111.053 19.0593 110.801 19.526C110.559 19.9833 110.437 20.5293 110.437 21.164C110.437 21.7893 110.559 22.34 110.801 22.816C111.053 23.2827 111.394 23.642 111.823 23.894C112.253 24.1367 112.738 24.258 113.279 24.258C113.802 24.258 114.278 24.132 114.707 23.88C115.146 23.628 115.491 23.2687 115.743 22.802C115.995 22.3353 116.121 21.794 116.121 21.178ZM126.527 25.112C125.808 25.112 125.159 24.9533 124.581 24.636C124.011 24.3093 123.559 23.852 123.223 23.264C122.896 22.6667 122.733 21.9713 122.733 21.178C122.733 20.3847 122.901 19.694 123.237 19.106C123.573 18.5087 124.03 18.0513 124.609 17.734C125.187 17.4073 125.836 17.244 126.555 17.244C127.273 17.244 127.922 17.4073 128.501 17.734C129.089 18.0513 129.546 18.5087 129.873 19.106C130.209 19.694 130.377 20.3847 130.377 21.178C130.377 21.962 130.209 22.6527 129.873 23.25C129.537 23.8473 129.075 24.3093 128.487 24.636C127.899 24.9533 127.245 25.112 126.527 25.112ZM126.527 24.258C127.031 24.258 127.497 24.146 127.927 23.922C128.356 23.6887 128.701 23.3433 128.963 22.886C129.233 22.4193 129.369 21.85 129.369 21.178C129.369 20.506 129.238 19.9413 128.977 19.484C128.715 19.0173 128.37 18.672 127.941 18.448C127.511 18.2147 127.045 18.098 126.541 18.098C126.037 18.098 125.57 18.2147 125.141 18.448C124.711 18.672 124.366 19.0173 124.105 19.484C123.853 19.9413 123.727 20.506 123.727 21.178C123.727 21.85 123.853 22.4193 124.105 22.886C124.366 23.3433 124.707 23.6887 125.127 23.922C125.556 24.146 126.023 24.258 126.527 24.258ZM135.747 17.216C136.662 17.216 137.408 17.5007 137.987 18.07C138.566 18.63 138.855 19.4467 138.855 20.52V25H137.889V20.632C137.889 19.8013 137.679 19.1667 137.259 18.728C136.848 18.2893 136.284 18.07 135.565 18.07C134.828 18.07 134.24 18.3033 133.801 18.77C133.362 19.2367 133.143 19.9227 133.143 20.828V25H132.163V17.356H133.143V18.658C133.386 18.1913 133.736 17.8367 134.193 17.594C134.65 17.342 135.168 17.216 135.747 17.216ZM146.138 18.182V22.928C146.138 23.3947 146.227 23.7167 146.404 23.894C146.581 24.0713 146.894 24.16 147.342 24.16H148.238V25H147.188C146.497 25 145.984 24.8413 145.648 24.524C145.312 24.1973 145.144 23.6653 145.144 22.928V18.182H144.08V17.356H145.144V15.438H146.138V17.356H148.238V18.182H146.138ZM153.494 17.216C154.073 17.216 154.591 17.3373 155.048 17.58C155.515 17.8227 155.879 18.196 156.14 18.7C156.411 19.1947 156.546 19.8013 156.546 20.52V25H155.58V20.632C155.58 19.8013 155.37 19.1667 154.95 18.728C154.54 18.2893 153.975 18.07 153.256 18.07C152.519 18.07 151.931 18.3033 151.492 18.77C151.054 19.2367 150.834 19.9227 150.834 20.828V25H149.854V14.64H150.834V18.658C151.077 18.2007 151.432 17.846 151.898 17.594C152.374 17.342 152.906 17.216 153.494 17.216ZM165.63 20.786C165.63 21.122 165.62 21.3787 165.602 21.556H159.26C159.288 22.1347 159.428 22.6293 159.68 23.04C159.932 23.4507 160.263 23.7633 160.674 23.978C161.084 24.1833 161.532 24.286 162.018 24.286C162.652 24.286 163.184 24.132 163.614 23.824C164.052 23.516 164.342 23.1007 164.482 22.578H165.518C165.331 23.3247 164.93 23.936 164.314 24.412C163.707 24.8787 162.942 25.112 162.018 25.112C161.299 25.112 160.655 24.9533 160.086 24.636C159.516 24.3093 159.068 23.852 158.742 23.264C158.424 22.6667 158.266 21.9713 158.266 21.178C158.266 20.3847 158.424 19.6893 158.742 19.092C159.059 18.4947 159.502 18.0373 160.072 17.72C160.641 17.4027 161.29 17.244 162.018 17.244C162.746 17.244 163.38 17.4027 163.922 17.72C164.472 18.0373 164.892 18.4667 165.182 19.008C165.48 19.54 165.63 20.1327 165.63 20.786ZM164.636 20.758C164.645 20.1887 164.528 19.7033 164.286 19.302C164.052 18.9007 163.73 18.5973 163.32 18.392C162.909 18.1867 162.461 18.084 161.976 18.084C161.248 18.084 160.627 18.3173 160.114 18.784C159.6 19.2507 159.316 19.9087 159.26 20.758H164.636Z" fill="white"/>
<path d="M57.248 38.08C56.96 37.5253 56.56 37.1093 56.048 36.832C55.536 36.544 54.944 36.4 54.272 36.4C53.536 36.4 52.88 36.5653 52.304 36.896C51.728 37.2267 51.2747 37.696 50.944 38.304C50.624 38.912 50.464 39.616 50.464 40.416C50.464 41.216 50.624 41.9253 50.944 42.544C51.2747 43.152 51.728 43.6213 52.304 43.952C52.88 44.2827 53.536 44.448 54.272 44.448C55.264 44.448 56.0693 44.1707 56.688 43.616C57.3067 43.0613 57.6853 42.3093 57.824 41.36H53.648V39.904H59.776V41.328C59.6587 42.192 59.3493 42.9867 58.848 43.712C58.3573 44.4373 57.712 45.0187 56.912 45.456C56.1227 45.8827 55.2427 46.096 54.272 46.096C53.2267 46.096 52.272 45.856 51.408 45.376C50.544 44.8853 49.856 44.208 49.344 43.344C48.8427 42.48 48.592 41.504 48.592 40.416C48.592 39.328 48.8427 38.352 49.344 37.488C49.856 36.624 50.544 35.952 51.408 35.472C52.2827 34.9813 53.2373 34.736 54.272 34.736C55.456 34.736 56.5067 35.0293 57.424 35.616C58.352 36.192 59.024 37.0133 59.44 38.08H57.248ZM65.399 46.144C64.567 46.144 63.815 45.9573 63.143 45.584C62.471 45.2 61.943 44.6667 61.559 43.984C61.175 43.2907 60.983 42.4907 60.983 41.584C60.983 40.688 61.1803 39.8933 61.575 39.2C61.9697 38.5067 62.5083 37.9733 63.191 37.6C63.8737 37.2267 64.6363 37.04 65.479 37.04C66.3217 37.04 67.0843 37.2267 67.767 37.6C68.4497 37.9733 68.9883 38.5067 69.383 39.2C69.7777 39.8933 69.975 40.688 69.975 41.584C69.975 42.48 69.7723 43.2747 69.367 43.968C68.9617 44.6613 68.407 45.2 67.703 45.584C67.0097 45.9573 66.2417 46.144 65.399 46.144ZM65.399 44.56C65.8683 44.56 66.3057 44.448 66.711 44.224C67.127 44 67.463 43.664 67.719 43.216C67.975 42.768 68.103 42.224 68.103 41.584C68.103 40.944 67.9803 40.4053 67.735 39.968C67.4897 39.52 67.1643 39.184 66.759 38.96C66.3537 38.736 65.9163 38.624 65.447 38.624C64.9777 38.624 64.5403 38.736 64.135 38.96C63.7403 39.184 63.4257 39.52 63.191 39.968C62.9563 40.4053 62.839 40.944 62.839 41.584C62.839 42.5333 63.079 43.2693 63.559 43.792C64.0497 44.304 64.663 44.56 65.399 44.56ZM75.6021 46.144C74.7701 46.144 74.0181 45.9573 73.3461 45.584C72.6741 45.2 72.1461 44.6667 71.7621 43.984C71.3781 43.2907 71.1861 42.4907 71.1861 41.584C71.1861 40.688 71.3835 39.8933 71.7781 39.2C72.1728 38.5067 72.7115 37.9733 73.3941 37.6C74.0768 37.2267 74.8395 37.04 75.6821 37.04C76.5248 37.04 77.2875 37.2267 77.9701 37.6C78.6528 37.9733 79.1915 38.5067 79.5861 39.2C79.9808 39.8933 80.1781 40.688 80.1781 41.584C80.1781 42.48 79.9755 43.2747 79.5701 43.968C79.1648 44.6613 78.6101 45.2 77.9061 45.584C77.2128 45.9573 76.4448 46.144 75.6021 46.144ZM75.6021 44.56C76.0715 44.56 76.5088 44.448 76.9141 44.224C77.3301 44 77.6661 43.664 77.9221 43.216C78.1781 42.768 78.3061 42.224 78.3061 41.584C78.3061 40.944 78.1835 40.4053 77.9381 39.968C77.6928 39.52 77.3675 39.184 76.9621 38.96C76.5568 38.736 76.1195 38.624 75.6501 38.624C75.1808 38.624 74.7435 38.736 74.3381 38.96C73.9435 39.184 73.6288 39.52 73.3941 39.968C73.1595 40.4053 73.0421 40.944 73.0421 41.584C73.0421 42.5333 73.2821 43.2693 73.7621 43.792C74.2528 44.304 74.8661 44.56 75.6021 44.56ZM85.5333 37.04C86.2159 37.04 86.8186 37.1787 87.3413 37.456C87.8746 37.7227 88.2906 38.0587 88.5893 38.464V37.184H90.4293V46.144C90.4293 46.9547 90.2586 47.6747 89.9173 48.304C89.5759 48.944 89.0799 49.4453 88.4293 49.808C87.7893 50.1707 87.0213 50.352 86.1253 50.352C84.9306 50.352 83.9386 50.0693 83.1493 49.504C82.3599 48.9493 81.9119 48.192 81.8053 47.232H83.6133C83.7519 47.6907 84.0453 48.0587 84.4933 48.336C84.9519 48.624 85.4959 48.768 86.1253 48.768C86.8613 48.768 87.4533 48.544 87.9013 48.096C88.3599 47.648 88.5893 46.9973 88.5893 46.144V44.672C88.2799 45.088 87.8586 45.44 87.3253 45.728C86.8026 46.0053 86.2053 46.144 85.5333 46.144C84.7653 46.144 84.0613 45.952 83.4213 45.568C82.7919 45.1733 82.2906 44.6293 81.9173 43.936C81.5546 43.232 81.3733 42.4373 81.3733 41.552C81.3733 40.6667 81.5546 39.8827 81.9173 39.2C82.2906 38.5173 82.7919 37.9893 83.4213 37.616C84.0613 37.232 84.7653 37.04 85.5333 37.04ZM88.5893 41.584C88.5893 40.976 88.4613 40.448 88.2053 40C87.9599 39.552 87.6346 39.2107 87.2293 38.976C86.8239 38.7413 86.3866 38.624 85.9173 38.624C85.4479 38.624 85.0106 38.7413 84.6053 38.976C84.1999 39.2 83.8693 39.536 83.6133 39.984C83.3679 40.4213 83.2453 40.944 83.2453 41.552C83.2453 42.16 83.3679 42.6933 83.6133 43.152C83.8693 43.6107 84.1999 43.9627 84.6053 44.208C85.0213 44.4427 85.4586 44.56 85.9173 44.56C86.3866 44.56 86.8239 44.4427 87.2293 44.208C87.6346 43.9733 87.9599 43.632 88.2053 43.184C88.4613 42.7253 88.5893 42.192 88.5893 41.584ZM94.649 34.16V46H92.825V34.16H94.649ZM105.124 41.376C105.124 41.7067 105.102 42.0053 105.06 42.272H98.3238C98.3771 42.976 98.6384 43.5413 99.1078 43.968C99.5771 44.3947 100.153 44.608 100.836 44.608C101.817 44.608 102.51 44.1973 102.916 43.376H104.884C104.617 44.1867 104.132 44.8533 103.428 45.376C102.734 45.888 101.87 46.144 100.836 46.144C99.9931 46.144 99.2358 45.9573 98.5638 45.584C97.9024 45.2 97.3798 44.6667 96.9958 43.984C96.6224 43.2907 96.4358 42.4907 96.4358 41.584C96.4358 40.6773 96.6171 39.8827 96.9798 39.2C97.3531 38.5067 97.8704 37.9733 98.5318 37.6C99.2038 37.2267 99.9718 37.04 100.836 37.04C101.668 37.04 102.409 37.2213 103.06 37.584C103.71 37.9467 104.217 38.4587 104.58 39.12C104.942 39.7707 105.124 40.5227 105.124 41.376ZM103.22 40.8C103.209 40.128 102.969 39.5893 102.5 39.184C102.03 38.7787 101.449 38.576 100.756 38.576C100.126 38.576 99.5878 38.7787 99.1398 39.184C98.6918 39.5787 98.4251 40.1173 98.3398 40.8H103.22ZM118.851 38.192C118.851 38.7573 118.718 39.2907 118.451 39.792C118.184 40.2933 117.758 40.704 117.171 41.024C116.584 41.3333 115.832 41.488 114.915 41.488H112.899V46H111.075V34.88H114.915C115.768 34.88 116.488 35.0293 117.075 35.328C117.672 35.616 118.115 36.0107 118.403 36.512C118.702 37.0133 118.851 37.5733 118.851 38.192ZM114.915 40C115.608 40 116.126 39.8453 116.467 39.536C116.808 39.216 116.979 38.768 116.979 38.192C116.979 36.976 116.291 36.368 114.915 36.368H112.899V40H114.915ZM122.415 34.16V46H120.591V34.16H122.415ZM124.201 41.552C124.201 40.6667 124.383 39.8827 124.745 39.2C125.119 38.5173 125.62 37.9893 126.249 37.616C126.889 37.232 127.593 37.04 128.361 37.04C129.055 37.04 129.657 37.1787 130.169 37.456C130.692 37.7227 131.108 38.0587 131.417 38.464V37.184H133.257V46H131.417V44.688C131.108 45.104 130.687 45.4507 130.153 45.728C129.62 46.0053 129.012 46.144 128.329 46.144C127.572 46.144 126.879 45.952 126.249 45.568C125.62 45.1733 125.119 44.6293 124.745 43.936C124.383 43.232 124.201 42.4373 124.201 41.552ZM131.417 41.584C131.417 40.976 131.289 40.448 131.033 40C130.788 39.552 130.463 39.2107 130.057 38.976C129.652 38.7413 129.215 38.624 128.745 38.624C128.276 38.624 127.839 38.7413 127.433 38.976C127.028 39.2 126.697 39.536 126.441 39.984C126.196 40.4213 126.073 40.944 126.073 41.552C126.073 42.16 126.196 42.6933 126.441 43.152C126.697 43.6107 127.028 43.9627 127.433 44.208C127.849 44.4427 128.287 44.56 128.745 44.56C129.215 44.56 129.652 44.4427 130.057 44.208C130.463 43.9733 130.788 43.632 131.033 43.184C131.289 42.7253 131.417 42.192 131.417 41.584ZM143.589 37.184L138.181 50.144H136.293L138.085 45.856L134.613 37.184H136.645L139.125 43.904L141.701 37.184H143.589Z" fill="white"/>
</svg>
